<svg width="50" height="50" viewBox="0 0 50 50" fill="none" xmlns="http://www.w3.org/2000/svg">
<path fill-rule="evenodd" clip-rule="evenodd" d="M0.150229 14.0823C0.101488 14.4607 0.0527426 14.8391 0 15.2168V34.7755C0.029039 34.9763 0.0624047 35.177 0.0957716 35.3776C0.167705 35.8101 0.239644 36.2426 0.26825 36.6777C0.753164 44.0419 5.76495 49.497 13.015 49.7733C21.0322 50.0785 29.0772 50.0712 37.095 49.7776C44.345 49.5124 49.5929 44.0702 49.8193 36.7171C50.0602 28.9093 50.0602 21.0824 49.8193 13.2745C49.5929 5.92147 44.3432 0.478686 37.0944 0.214055C29.0766 -0.0788858 21.0334 -0.0641157 13.0144 0.215285C6.35425 0.447915 1.69629 4.98726 0.502514 11.659C0.358959 12.462 0.254602 13.2721 0.150229 14.0823ZM28.4134 45.4411C27.2777 45.4305 26.1421 45.4198 25.0068 45.4198C23.8862 45.4198 22.7652 45.4304 21.6442 45.441C19.1407 45.4647 16.637 45.4883 14.1378 45.394C8.43775 45.1798 4.89344 41.7741 4.73868 36.0192C4.54205 28.6748 4.54205 21.3175 4.73868 13.973C4.89344 8.2176 8.43775 4.73125 14.1372 4.61001C21.4266 4.45492 28.724 4.45369 36.0135 4.61001C41.7566 4.73371 45.293 8.29207 45.4272 14.1115C45.5934 21.3648 45.5934 28.6274 45.4272 35.8802C45.293 41.7008 41.759 45.1779 36.0135 45.394C33.4828 45.4887 30.9481 45.4649 28.4134 45.4411Z" fill="white"/>
<path fill-rule="evenodd" clip-rule="evenodd" d="M12 24.9997C12 17.8202 17.5968 12 24.5 12C31.4038 12 37 17.8202 37 24.9997C37 32.1798 31.4038 38 24.5 38C17.5968 38 12 32.1798 12 24.9997ZM16.3036 24.9997C16.3036 29.7078 19.9731 33.5241 24.5 33.5241C29.0269 33.5241 32.6964 29.7078 32.6964 24.9997C32.6964 20.2916 29.0269 16.4752 24.5 16.4752C19.9731 16.4752 16.3036 20.2916 16.3036 24.9997Z" fill="white"/>
<path d="M41 11.0003C41 12.6569 39.6569 14 38.0003 14C36.3437 14 35 12.6569 35 11.0003C35 9.34308 36.3437 8 38.0003 8C39.6569 8 41 9.34308 41 11.0003Z" fill="white"/>
</svg>
